<?xml version="1.0" encoding="iso-8859-1"?>
<!-- Generator: Adobe Illustrator 19.0.0, SVG Export Plug-In . SVG Version: 6.00 Build 0)  -->
<svg xmlns="http://www.w3.org/2000/svg" xmlns:xlink="http://www.w3.org/1999/xlink" version="1.1" id="Layer_1" x="0px" y="0px" viewBox="0 0 512 512" style="enable-background:new 0 0 512 512;" xml:space="preserve">
<g>
	<g>
		<path d="M439.026,0H72.975C32.737,0,0,32.737,0,72.975v366.05C0,479.264,32.737,512,72.975,512h366.05    C479.264,512,512,479.264,512,439.026V72.975C512,32.737,479.264,0,439.026,0z M470.636,439.025    c0,17.43-14.181,31.611-31.61,31.611H72.975c-17.43,0-31.611-14.181-31.611-31.61V72.975c0-17.43,14.181-31.611,31.611-31.611    h366.05c17.43,0,31.611,14.181,31.611,31.611V439.025z"/>
	</g>
</g>
<g>
	<g>
		<path d="M349.064,319.814L192.185,162.935c-8.076-8.076-21.172-8.076-29.249,0c-8.077,8.077-8.077,21.172,0,29.249    l156.879,156.879c4.038,4.039,9.332,6.058,14.625,6.058s10.587-2.019,14.625-6.058C357.14,340.987,357.14,327.891,349.064,319.814    z"/>
	</g>
</g>
<g>
	<g>
		<path d="M349.065,162.935c-8.077-8.076-21.172-8.076-29.249,0L162.936,319.814c-8.077,8.077-8.077,21.172,0,29.249    c4.038,4.039,9.332,6.058,14.625,6.058c5.293,0,10.586-2.019,14.624-6.058l156.88-156.879    C357.141,184.108,357.141,171.013,349.065,162.935z"/>
	</g>
</g>
<g>
</g>
<g>
</g>
<g>
</g>
<g>
</g>
<g>
</g>
<g>
</g>
<g>
</g>
<g>
</g>
<g>
</g>
<g>
</g>
<g>
</g>
<g>
</g>
<g>
</g>
<g>
</g>
<g>
</g>
</svg>
