<?xml version="1.0" ?><!DOCTYPE svg  PUBLIC '-//W3C//DTD SVG 1.1//EN'  'http://www.w3.org/Graphics/SVG/1.1/DTD/svg11.dtd'><svg height="100%" style="fill-rule:evenodd;clip-rule:evenodd;stroke-linejoin:round;stroke-miterlimit:2;" version="1.1" viewBox="0 0 32 32" width="100%" xml:space="preserve" xmlns="http://www.w3.org/2000/svg" xmlns:serif="http://www.serif.com/" xmlns:xlink="http://www.w3.org/1999/xlink"><path d="M15.5,5.5c-5.519,0 -10,4.481 -10,10c0,5.519 4.481,10 10,10c5.519,0 10,-4.481 10,-10c-0,-5.519 -4.481,-10 -10,-10Zm0,1c4.967,0 9,4.033 9,9c-0,4.967 -4.033,9 -9,9c-4.967,0 -9,-4.033 -9,-9c0,-4.967 4.033,-9 9,-9Z"/><path d="M22.119,22.248l3.502,4.078c0.179,0.209 0.495,0.233 0.705,0.053c0.209,-0.179 0.233,-0.495 0.053,-0.705l-3.502,-4.078c-0.18,-0.209 -0.495,-0.233 -0.705,-0.053c-0.209,0.18 -0.233,0.496 -0.053,0.705Z"/></svg>